{"title":"ClubSandy 14 11 23 Mercedes Carrera Under The Robe XXX 1080p MP4","uid":11563133,"size":1016777959,"categoryP":"porn","categoryS":"hd___movies","magnet":"?xt=urn:btih:47f407d5ac6c6c0cfac2b65b52787fccc0905536&amp;dn=ClubSandy+14+11+23+Mercedes+Carrera+Under+The+Robe+XXX+1080p+MP4&amp;tr=udp%3A%2F%2Ftracker.openbittorrent.com%3A80&amp;tr=udp%3A%2F%2Fopen.demonii.com%3A1337&amp;tr=udp%3A%2F%2Ftracker.coppersurfer.tk%3A6969&amp;tr=udp%3A%2F%2Fexodus.desync.com%3A6969","seeders":0,"leechers":1,"uploader":"ston1d","files":-1,"time":1416874942,"description":"General\nFormat : MPEG-4\nFormat profile : Base Media / Version 2\nCodec ID : mp42\nFile size : 970 MiB\nDuration : 21mn 55s\nOverall bit rate mode : Variable\nOverall bit rate : 6 183 Kbps\nEncoded date : UTC 2014-11-20 15:42:10\nTagged date : UTC 2014-11-20 15:42:10\n\nVideo\nID : 1\nFormat : AVC\nFormat/Info : Advanced Video Codec\nFormat profile : &lt;a class=&quot;__cf_email__&quot; href=&quot;/cdn-cgi/l/email-protection&quot; data-cfemail=&quot;1d55747a755d5129332d&quot;&gt;[email&amp;#160;protected]&lt;/a&gt;&lt;script cf-hash='f9e31' type=&quot;text/javascript&quot;&gt;\n/* &lt;![CDATA[ */!function(){try{var t=&quot;currentScript&quot;in document?document.currentScript:function(){for(var t=document.getElementsByTagName(&quot;script&quot;),e=t.length;e--;)if(t[e].getAttribute(&quot;cf-hash&quot;))return t[e]}();if(t&amp;&amp;t.previousSibling){var e,r,n,i,c=t.previousSibling,a=c.getAttribute(&quot;data-cfemail&quot;);if(a){for(e=&quot;&quot;,r=parseInt(a.substr(0,2),16),n=2;a.length-n;n+=2)i=parseInt(a.substr(n,2),16)^r,e+=String.fromCharCode(i);e=document.createTextNode(e),c.parentNode.replaceChild(e,c)}}}catch(u){}}();/* ]]&gt; */&lt;/script&gt;\nFormat settings, CABAC : Yes\nFormat settings, ReFrames : 4 frames\nCodec ID : avc1\nCodec ID/Info : Advanced Video Coding\nDuration : 21mn 55s\nBit rate mode : Variable\nBit rate : 5 989 Kbps\nWidth : 1 920 pixels\nHeight : 1 080 pixels\nDisplay aspect ratio : 16:9\nFrame rate mode : Constant\nFrame rate : 30.000 fps\nColor space : YUV\nChroma subsampling : 4:2:0\nBit depth : 8 bits\nScan type : Progressive\nBits/(Pixel*Frame) : 0.096\nStream size : 939 MiB (97%)\nLanguage : English\nEncoded date : UTC 2014-11-20 15:42:10\nTagged date : UTC 2014-11-20 15:42:10\nColor primaries : BT.709\nTransfer characteristics : BT.709\nMatrix coefficients : BT.709\n\nAudio\nID : 2\nFormat : AAC\nFormat/Info : Advanced Audio Codec\nFormat profile : LC\nCodec ID : 40\nDuration : 21mn 55s\nBit rate mode : Variable\nBit rate : 192 Kbps\nMaximum bit rate : 388 Kbps\nChannel(s) : 2 channels\nChannel positions : Front: L R\nSampling rate : 48.0 KHz\nCompression mode : Lossy\nStream size : 29.7 MiB (3%)\nLanguage : English\nEncoded date : UTC 2014-11-20 15:42:10\nTagged date : UTC 2014-11-20 15:42:10","torrent":{"xt":"urn:btih:47f407d5ac6c6c0cfac2b65b52787fccc0905536","amp;dn":"ClubSandy+14+11+23+Mercedes+Carrera+Under+The+Robe+XXX+1080p+MP4","amp;tr":["udp%3A%2F%2Ftracker.openbittorrent.com%3A80","udp%3A%2F%2Fopen.demonii.com%3A1337","udp%3A%2F%2Ftracker.coppersurfer.tk%3A6969","udp%3A%2F%2Fexodus.desync.com%3A6969"],"infoHash":"47f407d5ac6c6c0cfac2b65b52787fccc0905536","infoHashBuffer":{"type":"Buffer","data":[71,244,7,213,172,108,108,12,250,194,182,91,82,120,127,204,192,144,85,54]},"announce":[],"urlList":[]}}